<?xml version="1.0" standalone="no"?><!DOCTYPE svg PUBLIC "-//W3C//DTD SVG 1.1//EN" "http://www.w3.org/Graphics/SVG/1.1/DTD/svg11.dtd"><svg t="1602993266810" class="icon" viewBox="0 0 1024 1024" version="1.1" xmlns="http://www.w3.org/2000/svg" p-id="983" width="128" height="128" xmlns:xlink="http://www.w3.org/1999/xlink"><defs><style type="text/css"></style></defs><path d="M1012.936 721.888l-35.288-11.872 19.4-31.776c-8.784-6.96-20.544-11.416-33.832-13.384A460.992 460.992 0 0 0 981.6 536c0-254.752-206.52-461.264-461.264-461.264S59.064 281.248 59.064 536s206.52 461.264 461.264 461.264c124.4 0 237.216-49.336 320.184-129.4 1.792 2.296 3.52 4.616 5.504 6.848 25.272 28.392 58.576 42.336 84.208 37.784l-2-37.176 36.696 6.296c7.496-24.928-2.48-59.624-27.752-88.024a131.312 131.312 0 0 0-3.184-3.456 138.424 138.424 0 0 0 12.744-3.936c35.728-13.008 60.976-38.808 66.208-64.312z" fill="#E6E7E8" p-id="984"></path><path d="M480.328 496m-461.264 0a461.264 461.264 0 1 0 922.528 0 461.264 461.264 0 1 0-922.528 0Z" fill="#FFFFFF" p-id="985"></path><path d="M480.328 527.152m-461.264 0a461.264 461.264 0 1 0 922.528 0 461.264 461.264 0 1 0-922.528 0Z" fill="#FA759E" p-id="986"></path><path d="M980.936 689.888l-35.288-11.872 19.4-31.776c-20.4-16.176-56.328-19.712-92.048-6.712-4.936 1.792-9.656 3.848-14.16 6.096 0.232-3.232 0.36-6.512 0.36-9.84 0-38.008-15.616-70.568-37.784-84.2l-23.224 29.104-23.224-29.104c-22.176 13.632-37.784 46.192-37.784 84.2 0 3.328 0.128 6.608 0.36 9.84a135.904 135.904 0 0 0-14.16-6.096c-35.72-13-71.648-9.464-92.048 6.712l19.4 31.776-35.288 11.872c5.232 25.496 30.48 51.304 66.2 64.304 4.256 1.552 8.512 2.856 12.744 3.936-1.072 1.128-2.136 2.28-3.184 3.456-25.272 28.392-35.248 63.096-27.752 88.024l36.696-6.296-2 37.176c25.632 4.552 58.936-9.384 84.208-37.784a133.552 133.552 0 0 0 15.832-21.848 133.08 133.08 0 0 0 15.832 21.848c25.272 28.392 58.576 42.336 84.208 37.784l-2-37.176 36.696 6.296c7.496-24.928-2.48-59.624-27.752-88.024a131.312 131.312 0 0 0-3.184-3.456 138.424 138.424 0 0 0 12.744-3.936c35.72-13 60.968-38.8 66.2-64.304z" fill="#FFD7E5" p-id="987"></path><path d="M304.072 647.136H174.536v32.64h-45.92v38.08H75.888a459.8 459.8 0 0 0 26.96 43.072h152.704l48.52-113.792z" fill="#0089EF" p-id="988"></path><path d="M352.44 379.536h-0.144v0.064l0.144-0.064zM615.44 689.888l35.288-11.872-19.4-31.776c14.224-11.28 36.048-16.232 60.04-13.904l-19.992-146.064h-0.752v-30.888h-24.24V401.2a403.744 403.744 0 0 1-75.408-11.232s-14.424 20.984-64.616 22.712l1.152 0.064h-2.304c0.4-0.008 0.752-0.048 1.152-0.064-50.184-1.728-64.616-22.712-64.616-22.712a406.96 406.96 0 0 1-89.456 11.784v53.632h-24.24v30.888h-0.752l-21.44 156.68-68.888 161.56h428.96c4.872-14.584 13.288-29.456 25.272-42.92 1.048-1.176 2.104-2.328 3.184-3.456a138.424 138.424 0 0 1-12.744-3.936c-35.72-13.008-60.968-38.808-66.2-64.312z" fill="#D4FBFF" p-id="989"></path><path d="M499.336 555.232a31.84 31.84 0 0 0-31.848 31.848v81.256h63.696V587.08a31.848 31.848 0 0 0-31.848-31.848zM480.496 432.728h34.432v43.936h-34.432z" fill="#6DC9F7" p-id="990"></path><path d="M521.416 256.672v-32.856a20.88 20.88 0 0 1-30.584 1.04v31.816h30.584z" fill="#D4FBFF" p-id="991"></path><path d="M505.696 188.984a21.016 21.016 0 1 0 0 42.032 21.016 21.016 0 0 0 0-42.032z" fill="#D4FBFF" p-id="992"></path><path d="M608.32 333.856c10.104 31.696 56.504 50.688 107.472 64.96 0 0-65.08 11.032-144.816-8.856 0 0-14.608 21.344-65.768 22.776h2.304c-51.16-1.432-65.768-22.776-65.768-22.776-79.736 19.88-144.816 8.856-144.816 8.856 50.968-14.28 97.368-33.264 107.472-64.96h203.92z" fill="#0089EF" p-id="993"></path><path d="M526.568 256.672c5.736 7.368 71.568 86.904 159.904 86.904 0 0-56 9.488-124.616-7.616 0 0-12.568 18.368-56.592 19.6h1.984c-44.024-1.232-56.592-19.6-56.592-19.6-68.616 17.112-124.616 7.616-124.616 7.616 115.616-20.6 154.168-79.536 159.896-86.904h40.632z" fill="#0089EF" p-id="994"></path><path d="M983.488 682.312l-25.792-8.672 14.176-23.224a8 8 0 0 0-1.856-10.44c-10.232-8.112-23.648-13.072-38.544-15.136A467.376 467.376 0 0 0 949.6 496c0-258.752-210.504-469.264-469.264-469.264S11.064 237.248 11.064 496a466.352 466.352 0 0 0 57.408 224.696c0.128 0.344 0.224 0.704 0.4 1.032 2.864 5.216 6.056 10.448 9.216 15.672 0.424 0.712 0.832 1.44 1.256 2.144 2.896 4.736 5.96 9.432 9.072 14.144 1.464 2.216 2.912 4.448 4.408 6.64 1.184 1.736 2.248 3.488 3.464 5.216 0.344 0.48 0.744 0.904 1.168 1.296 85.096 119.936 224.936 198.432 382.864 198.432 104.672 0 201.336-34.576 279.456-92.752a136.464 136.464 0 0 0 20.536-16.232 477.2 477.2 0 0 0 20.136-17.784c2.424 3.24 4.872 6.472 7.592 9.528 23.096 25.952 53.456 41.32 80.232 41.32 3.864 0 7.664-0.32 11.344-0.976a8 8 0 0 0 6.592-8.304l-1.464-27.168 26.824 4.6c3.888 0.68 7.84-1.704 9.016-5.576 7.984-26.544-1.584-61.08-24.448-89.728l1.328-0.48c37.352-13.592 65.344-41.152 71.304-70.208a7.992 7.992 0 0 0-5.28-9.2zM480.328 42.736c249.928 0 453.264 203.336 453.264 453.264 0 44.36-6.504 87.216-18.44 127.768a135.44 135.44 0 0 0-47.984 9.416c-0.696-38.704-16.856-73.208-41.568-88.408a8 8 0 0 0-10.44 1.824l-16.976 21.264-16.976-21.264a8 8 0 0 0-10.44-1.824c-24.72 15.2-40.88 49.704-41.576 88.408a140.864 140.864 0 0 0-30.76-8.176l-19.128-139.824a7.136 7.136 0 0 0-0.68-2.144v-27.664a8 8 0 0 0-8-8h-16.24v-37.744c36.72 1.304 61.096-2.656 62.744-2.936a8 8 0 0 0 0.824-15.592c-28.32-7.936-63.896-19.656-85.112-37.128 32.176 1.208 53.544-2.288 54.968-2.528a8 8 0 0 0-1.336-15.888c-87.424 0-152.928-82.976-153.584-83.816a7.904 7.904 0 0 0-3.472-2.432v-22.712a28.792 28.792 0 0 0 5.296-16.616c0-16-13.016-29.016-29.016-29.016s-29.016 13.016-29.016 29.016c0 6.672 2.352 12.744 6.152 17.648v21.744a7.832 7.832 0 0 0-3.208 2.368l-1.2 1.6c-30.296 40.832-84.904 70.072-153.792 82.344a7.992 7.992 0 0 0 0.072 15.76c1.432 0.248 22.896 3.76 55.2 2.52-21.216 17.48-56.792 29.2-85.12 37.136a8 8 0 0 0 0.824 15.592c1.424 0.24 19.952 3.224 48.688 3.184v37.488h-16.24a8 8 0 0 0-8 8v27.504c-0.336 0.712-0.56 1.488-0.68 2.304l-21.072 153.952H174.536a8 8 0 0 0-8 8v24.64h-37.92a8 8 0 0 0-8 8v30.088h-39.792A450.336 450.336 0 0 1 27.064 496c0-249.928 203.336-453.264 453.264-453.264z m179.904 753.776h-63.488l-3.32-22.128h78.16a130.192 130.192 0 0 0-11.352 22.128z m-411.152 0l9.432-22.128H402.16l-3.32 22.128h-149.76z m-159.176-70.648h25.84c0.224 0.016 0.416 0.128 0.64 0.128h145.368l-1.176 2.752a0.112 0.112 0 0 0-0.016 0.048l-10.296 24.144H107.208c-6.08-8.8-11.84-17.832-17.304-27.072z m583.976-332.064c-25.128 0.256-59.856-1.752-97.952-10.904-5.704-4.648-17.888-17.008-21.648-30.8a53.424 53.424 0 0 0 10.256-7.256 354.08 354.08 0 0 0 44.656 7.456c13.512 18.328 38.08 31.52 64.688 41.504z m-11.256 84.472h-89.44v-14.888h89.44v14.888z m-160.928-213.6h8.192c4.312 12.312 17.504 46.104 40.032 71.288-6.584 4.48-19.864 10.704-43.672 11.56-24.576-0.888-37.912-7.48-44.24-11.944 22.328-25.144 35.4-58.656 39.688-70.904z m2.168 98.768c0.456 0.08 0.92 0.12 1.4 0.12h1.984c0.48 0 0.944-0.04 1.4-0.12 12.552-0.584 22.64-2.52 30.736-5.032 4.304 13.56 13.696 24.728 20.368 31.352-6.992 5.336-22.816 13.856-53.384 14.952-29.672-1.072-45.504-9.24-52.8-14.584 6.64-6.528 16.216-17.736 20.64-31.4 7.912 2.344 17.648 4.144 29.656 4.712z m60.96-35.016c-16.072-16.64-27.576-39.248-34.28-54.952 15.224 16.432 46.376 45.904 87.848 63.568a337.488 337.488 0 0 1-53.568-8.616z m-59.128-105.416c-7.176 0-13.016-5.832-13.016-13.008s5.832-13.016 13.016-13.016 13.016 5.84 13.016 13.016-5.832 13.008-13.016 13.008z m0 16c2.688 0 5.248-0.488 7.72-1.176v10.832h-14.584v-10.568c2.208 0.544 4.488 0.912 6.864 0.912z m-59.16 89.664a342.944 342.944 0 0 1-65.944 9.192c40.912-13.992 74.784-34.808 98.96-60.936-6.888 15.52-17.984 36.272-33.016 51.744z m-42.984 23.592a354.24 354.24 0 0 0 44.416-7.424c2.432 2.264 6.152 5.112 11.376 7.896-4.152 14.424-17.144 26.384-21.224 29.856-38.624 9.432-73.816 11.52-99.264 11.2 26.616-9.976 51.2-23.184 64.696-41.528z m35.536 46.584c7.4 6.968 26.192 19.952 64.648 21.76 0.48 0.088 0.968 0.136 1.48 0.136h2.304c0.504 0 1-0.048 1.48-0.136 38.456-1.808 57.248-14.792 64.648-21.76a413.616 413.616 0 0 0 64.744 9.904v38.632h-73.2a8 8 0 0 0-8 8v184.512c0 0.208 0.104 0.376 0.12 0.576 0.016 0.208-0.064 0.4-0.032 0.608l2.888 19.256H435.44l2.888-19.256c0.016-0.128-0.032-0.24-0.016-0.36 0.016-0.184 0.104-0.336 0.104-0.52V455.384a8 8 0 0 0-8-8h-70.128v-37.8a416.36 416.36 0 0 0 78.8-10.736z m-26.232 277.488h4.008l-2.232 14.864H293.976l6.336-14.864h112.544z m-3.128 47.552H280.04l7.112-16.68h125.08l-2.504 16.68z m-136.504 16h134.112l-2.776 18.496H265.336l7.888-18.496z m79.064-276.504h70.128v14.888H336.048v-14.888h16.24z m-18.008 30.888h88.136V639.28l-3.16 21.056H307.136l6.08-14.256a7.952 7.952 0 0 0 0.568-2.048l20.496-149.76z m-49.416 177.512H182.536v-16.64h109.424l-7.096 16.64z m-110.328 16h103.512l-3.544 8.312v0.008l-5.928 13.896H136.608v-22.216h37.928z m258.504-11.448h129.504l18.008 120.168H415.024l18.016-120.168z m157.992 82.048l-2.776-18.496h51.672a133.984 133.984 0 0 0 30.712 18.496h-79.608z m-5.168-34.496l-2.496-16.68h29.656c2.784 5.76 6.416 11.344 10.744 16.68h-37.904z m27.032-41.576a7.968 7.968 0 0 0-5.296 8.896h-26.64l-2.232-14.864h51.896l-17.728 5.968z m11.608-31.904l6.064 9.928h-54.224l-3.16-21.056V494.272H664.4l17.712 129.464c-21.792-0.368-41.704 5.088-55.752 16.232a8 8 0 0 0-1.856 10.44zM118.736 768.936H243.44l-13.832 32.44a8 8 0 0 0 7.36 11.136h418.48c-3.12 13.904-3.256 27.472 0.336 39.408 1.168 3.872 5.08 6.256 9.016 5.576l26.824-4.6-1.472 27.168c-0.208 4.032 2.616 7.6 6.592 8.304 2.792 0.496 5.656 0.744 8.552 0.864a450.168 450.168 0 0 1-224.976 60.04c-147.512-0.008-278.76-70.88-361.584-180.336zM912 746.68c-3.288 1.192-6.704 2.192-10.136 3.128l-21.856-5.96a8 8 0 1 0-4.208 15.44l21.864 5.96c0.512 0.552 1.032 1.096 1.528 1.656 20.296 22.808 30.808 51.384 27.576 73.536l-26.432-4.536-14.736-16.56a8 8 0 0 0-11.952 10.64l14.728 16.552 1.44 26.784c-22.256 0.672-49.528-13.128-69.832-35.928a125.656 125.656 0 0 1-13.808-18.88v-22.6a8 8 0 1 0-16 0v22.592a124.488 124.488 0 0 1-13.808 18.88c-20.304 22.808-47.832 36.448-69.832 35.928l1.44-26.784 14.728-16.552a8 8 0 0 0-11.952-10.64l-14.736 16.56-26.432 4.536c-3.224-22.16 7.28-50.728 27.576-73.528 0.504-0.568 1.024-1.112 1.536-1.664l21.848-5.96a8 8 0 1 0-4.208-15.44l-21.856 5.96a129.44 129.44 0 0 1-10.128-3.128c-28.688-10.448-51.504-30.608-59.168-51.632l25.416-8.552 20.824 7.576a7.992 7.992 0 0 0 10.248-4.784 8 8 0 0 0-4.784-10.256l-20.824-7.576-13.968-22.888c19.392-11.176 49.832-11.96 78.504-1.52 4.096 1.496 8.16 3.288 12.152 5.232l16.72 16.704a7.976 7.976 0 0 0 11.312-0.008 8 8 0 0 0 0-11.32l-15.408-15.392c-0.112-2.144-0.232-4.288-0.232-6.48 0-30.528 11.152-58.856 28.288-73.256l16.728 20.96v22.168a8 8 0 1 0 16 0v-22.168l16.728-20.96c17.144 14.4 28.28 42.728 28.28 73.256 0 2.16-0.128 4.272-0.232 6.384l-15.44 15.424a8 8 0 0 0 11.312 11.328l16.592-16.576a128.944 128.944 0 0 1 12.304-5.296c28.688-10.44 59.128-9.656 78.512 1.52l-13.976 22.888-20.824 7.576a8 8 0 1 0 5.464 15.04l20.824-7.576 25.424 8.552c-7.632 21.04-30.448 41.2-59.128 51.64z" fill="#3A2C60" p-id="995"></path><path d="M866.656 704.128a11.016 11.016 0 0 0-13.496-7.792 10.96 10.96 0 0 0-6.504 4.872l-37.152 9.952a15.92 15.92 0 0 0-3.312-2.464v-41.616c1.856-1.976 3.016-4.616 3.016-7.544a11.024 11.024 0 0 0-22.048 0c0 2.928 1.16 5.568 3.024 7.544v41.608c-1.2 0.696-2.336 1.496-3.312 2.472l-37.152-9.952a10.96 10.96 0 0 0-6.504-4.872 11.016 11.016 0 1 0-5.704 21.288c2.824 0.76 5.68 0.32 8.064-0.968l37.224 9.976c0.192 0.712 0.376 1.44 0.664 2.104l-23.16 30.776c-2.656 0.464-5.168 1.84-6.92 4.168a11.024 11.024 0 0 0 17.616 13.248c1.752-2.328 2.376-5.12 2.088-7.8l23.208-30.848c0.624 0.072 1.24 0.192 1.888 0.192s1.264-0.112 1.888-0.192l23.208 30.856c-0.288 2.68 0.336 5.472 2.088 7.8a11.024 11.024 0 0 0 17.616-13.248 10.928 10.928 0 0 0-6.92-4.168l-23.152-30.776c0.288-0.672 0.472-1.392 0.664-2.104l37.224-9.976c2.392 1.288 5.24 1.728 8.064 0.968a11.024 11.024 0 0 0 7.792-13.504z" fill="#FA759E" p-id="996"></path></svg>